grf
version=1
nRows=23
nColumns=46
inDegrees=yes
endheader
time	ground_force_1_vx	ground_force_1_vy	ground_force_1_vz	ground_force_1_px	ground_force_1_py	ground_force_1_pz	ground_moment_1_mx	ground_moment_1_my	ground_moment_1_mz	ground_force_2_vx	ground_force_2_vy	ground_force_2_vz	ground_force_2_px	ground_force_2_py	ground_force_2_pz	ground_moment_2_mx	ground_moment_2_my	ground_moment_2_mz	ground_force_3_vx	ground_force_3_vy	ground_force_3_vz	ground_force_3_px	ground_force_3_py	ground_force_3_pz	ground_moment_3_mx	ground_moment_3_my	ground_moment_3_mz	ground_force_4_vx	ground_force_4_vy	ground_force_4_vz	ground_force_4_px	ground_force_4_py	ground_force_4_pz	ground_moment_4_mx	ground_moment_4_my	ground_moment_4_mz	ground_force_5_vx	ground_force_5_vy	ground_force_5_vz	ground_force_5_px	ground_force_5_py	ground_force_5_pz	ground_moment_5_mx	ground_moment_5_my	ground_moment_5_mz
8.452500	0.000000	0.000000	0.000000	0.000000	0.000000	0.000000	0.000000	0.000000	0.000000	0.000000	0.000000	0.000000	0.000000	0.000000	0.000000	0.000000	0.000000	0.000000	0.000000	0.000000	0.000000	0.000000	0.000000	0.000000	0.000000	0.000000	0.000000	5.480272	426.179472	-5.226473	0.184714	0.000000	-1.087139	0.000000	3.802620	0.000000	-1.282892	459.275853	10.499877	0.204348	0.000000	-1.392013	-0.000000	-4.521458	-0.000000
8.453000	0.000000	0.000000	0.000000	0.000000	0.000000	0.000000	0.000000	0.000000	0.000000	0.000000	0.000000	0.000000	0.000000	0.000000	0.000000	0.000000	0.000000	0.000000	0.000000	0.000000	0.000000	0.000000	0.000000	0.000000	0.000000	0.000000	0.000000	5.472558	426.139547	-5.234606	0.184720	0.000000	-1.087145	0.000000	3.801212	0.000000	-1.236801	459.247870	10.510988	0.204337	0.000000	-1.392017	-0.000000	-4.520213	-0.000000
8.453500	0.000000	0.000000	0.000000	0.000000	0.000000	0.000000	0.000000	0.000000	0.000000	0.000000	0.000000	0.000000	0.000000	0.000000	0.000000	0.000000	0.000000	0.000000	0.000000	0.000000	0.000000	0.000000	0.000000	0.000000	0.000000	0.000000	0.000000	5.464661	426.097965	-5.242792	0.184727	0.000000	-1.087150	0.000000	3.799835	0.000000	-1.191579	459.218302	10.522036	0.204325	0.000000	-1.392021	-0.000000	-4.518957	-0.000000
8.454000	0.000000	0.000000	0.000000	0.000000	0.000000	0.000000	0.000000	0.000000	0.000000	0.000000	0.000000	0.000000	0.000000	0.000000	0.000000	0.000000	0.000000	0.000000	0.000000	0.000000	0.000000	0.000000	0.000000	0.000000	0.000000	0.000000	0.000000	5.456613	426.054585	-5.251025	0.184734	0.000000	-1.087155	0.000000	3.798496	0.000000	-1.147284	459.187088	10.533013	0.204314	0.000000	-1.392025	-0.000000	-4.517692	-0.000000
8.454500	0.000000	0.000000	0.000000	0.000000	0.000000	0.000000	0.000000	0.000000	0.000000	0.000000	0.000000	0.000000	0.000000	0.000000	0.000000	0.000000	0.000000	0.000000	0.000000	0.000000	0.000000	0.000000	0.000000	0.000000	0.000000	0.000000	0.000000	5.448446	426.009262	-5.259292	0.184741	0.000000	-1.087159	0.000000	3.797199	0.000000	-1.103970	459.154170	10.543906	0.204303	0.000000	-1.392029	-0.000000	-4.516418	-0.000000
8.455000	0.000000	0.000000	0.000000	0.000000	0.000000	0.000000	0.000000	0.000000	0.000000	0.000000	0.000000	0.000000	0.000000	0.000000	0.000000	0.000000	0.000000	0.000000	0.000000	0.000000	0.000000	0.000000	0.000000	0.000000	0.000000	0.000000	0.000000	5.440191	425.961844	-5.267576	0.184749	0.000000	-1.087164	0.000000	3.795950	0.000000	-1.061686	459.119501	10.554706	0.204293	0.000000	-1.392033	-0.000000	-4.515140	-0.000000
8.455500	0.000000	0.000000	0.000000	0.000000	0.000000	0.000000	0.000000	0.000000	0.000000	0.000000	0.000000	0.000000	0.000000	0.000000	0.000000	0.000000	0.000000	0.000000	0.000000	0.000000	0.000000	0.000000	0.000000	0.000000	0.000000	0.000000	0.000000	5.431876	425.912170	-5.275861	0.184757	0.000000	-1.087169	0.000000	3.794751	0.000000	-1.020472	459.083037	10.565407	0.204283	0.000000	-1.392037	-0.000000	-4.513857	-0.000000
8.456000	0.000000	0.000000	0.000000	0.000000	0.000000	0.000000	0.000000	0.000000	0.000000	0.000000	0.000000	0.000000	0.000000	0.000000	0.000000	0.000000	0.000000	0.000000	0.000000	0.000000	0.000000	0.000000	0.000000	0.000000	0.000000	0.000000	0.000000	5.423525	425.860083	-5.284128	0.184764	0.000000	-1.087174	0.000000	3.793607	0.000000	-0.980362	459.044739	10.576014	0.204273	0.000000	-1.392041	-0.000000	-4.512573	-0.000000
8.456500	0.000000	0.000000	0.000000	0.000000	0.000000	0.000000	0.000000	0.000000	0.000000	0.000000	0.000000	0.000000	0.000000	0.000000	0.000000	0.000000	0.000000	0.000000	0.000000	0.000000	0.000000	0.000000	0.000000	0.000000	0.000000	0.000000	0.000000	5.415160	425.805436	-5.292364	0.184772	0.000000	-1.087178	0.000000	3.792520	0.000000	-0.941380	459.004574	10.586532	0.204263	0.000000	-1.392044	-0.000000	-4.511288	-0.000000
8.457000	0.000000	0.000000	0.000000	0.000000	0.000000	0.000000	0.000000	0.000000	0.000000	0.000000	0.000000	0.000000	0.000000	0.000000	0.000000	0.000000	0.000000	0.000000	0.000000	0.000000	0.000000	0.000000	0.000000	0.000000	0.000000	0.000000	0.000000	5.406803	425.748097	-5.300561	0.184781	0.000000	-1.087183	0.000000	3.791491	0.000000	-0.903533	458.962516	10.596972	0.204254	0.000000	-1.392048	-0.000000	-4.510007	-0.000000
8.457500	0.000000	0.000000	0.000000	0.000000	0.000000	0.000000	0.000000	0.000000	0.000000	0.000000	0.000000	0.000000	0.000000	0.000000	0.000000	0.000000	0.000000	0.000000	0.000000	0.000000	0.000000	0.000000	0.000000	0.000000	0.000000	0.000000	0.000000	5.398476	425.687954	-5.308718	0.184789	0.000000	-1.087188	0.000000	3.790521	0.000000	-0.866822	458.918558	10.607339	0.204245	0.000000	-1.392051	-0.000000	-4.508733	-0.000000
8.458000	0.000000	0.000000	0.000000	0.000000	0.000000	0.000000	0.000000	0.000000	0.000000	0.000000	0.000000	0.000000	0.000000	0.000000	0.000000	0.000000	0.000000	0.000000	0.000000	0.000000	0.000000	0.000000	0.000000	0.000000	0.000000	0.000000	0.000000	5.390203	425.624913	-5.316837	0.184797	0.000000	-1.087192	0.000000	3.789611	0.000000	-0.831239	458.872709	10.617634	0.204236	0.000000	-1.392054	-0.000000	-4.507468	-0.000000
8.458500	0.000000	0.000000	0.000000	0.000000	0.000000	0.000000	0.000000	0.000000	0.000000	0.000000	0.000000	0.000000	0.000000	0.000000	0.000000	0.000000	0.000000	0.000000	0.000000	0.000000	0.000000	0.000000	0.000000	0.000000	0.000000	0.000000	0.000000	5.382014	425.558899	-5.324922	0.184805	0.000000	-1.087197	0.000000	3.788759	0.000000	-0.796770	458.825000	10.627855	0.204227	0.000000	-1.392056	-0.000000	-4.506217	-0.000000
8.459000	0.000000	0.000000	0.000000	0.000000	0.000000	0.000000	0.000000	0.000000	0.000000	0.000000	0.000000	0.000000	0.000000	0.000000	0.000000	0.000000	0.000000	0.000000	0.000000	0.000000	0.000000	0.000000	0.000000	0.000000	0.000000	0.000000	0.000000	5.373940	425.489851	-5.332972	0.184814	0.000000	-1.087202	0.000000	3.787967	0.000000	-0.763397	458.775472	10.637999	0.204219	0.000000	-1.392059	-0.000000	-4.504981	-0.000000
8.459500	0.000000	0.000000	0.000000	0.000000	0.000000	0.000000	0.000000	0.000000	0.000000	0.000000	0.000000	0.000000	0.000000	0.000000	0.000000	0.000000	0.000000	0.000000	0.000000	0.000000	0.000000	0.000000	0.000000	0.000000	0.000000	0.000000	0.000000	5.366016	425.417724	-5.340981	0.184822	0.000000	-1.087207	0.000000	3.787231	0.000000	-0.731102	458.724178	10.648060	0.204211	0.000000	-1.392061	-0.000000	-4.503763	-0.000000
8.460000	0.000000	0.000000	0.000000	0.000000	0.000000	0.000000	0.000000	0.000000	0.000000	0.000000	0.000000	0.000000	0.000000	0.000000	0.000000	0.000000	0.000000	0.000000	0.000000	0.000000	0.000000	0.000000	0.000000	0.000000	0.000000	0.000000	0.000000	5.358276	425.342496	-5.348944	0.184830	0.000000	-1.087212	0.000000	3.786549	0.000000	-0.699869	458.671180	10.658036	0.204203	0.000000	-1.392062	-0.000000	-4.502568	-0.000000
8.460500	0.000000	0.000000	0.000000	0.000000	0.000000	0.000000	0.000000	0.000000	0.000000	0.000000	0.000000	0.000000	0.000000	0.000000	0.000000	0.000000	0.000000	0.000000	0.000000	0.000000	0.000000	0.000000	0.000000	0.000000	0.000000	0.000000	0.000000	5.350752	425.264165	-5.356857	0.184838	0.000000	-1.087217	0.000000	3.785915	0.000000	-0.669688	458.616547	10.667925	0.204196	0.000000	-1.392064	-0.000000	-4.501398	-0.000000
8.461000	0.000000	0.000000	0.000000	0.000000	0.000000	0.000000	0.000000	0.000000	0.000000	0.000000	0.000000	0.000000	0.000000	0.000000	0.000000	0.000000	0.000000	0.000000	0.000000	0.000000	0.000000	0.000000	0.000000	0.000000	0.000000	0.000000	0.000000	5.343482	425.182753	-5.364720	0.184846	0.000000	-1.087222	0.000000	3.785324	0.000000	-0.640552	458.560360	10.677725	0.204188	0.000000	-1.392065	-0.000000	-4.500257	-0.000000
8.461500	0.000000	0.000000	0.000000	0.000000	0.000000	0.000000	0.000000	0.000000	0.000000	0.000000	0.000000	0.000000	0.000000	0.000000	0.000000	0.000000	0.000000	0.000000	0.000000	0.000000	0.000000	0.000000	0.000000	0.000000	0.000000	0.000000	0.000000	5.336502	425.098305	-5.372535	0.184854	0.000000	-1.087226	0.000000	3.784770	0.000000	-0.612456	458.502706	10.687432	0.204181	0.000000	-1.392066	-0.000000	-4.499147	-0.000000
8.462000	0.000000	0.000000	0.000000	0.000000	0.000000	0.000000	0.000000	0.000000	0.000000	0.000000	0.000000	0.000000	0.000000	0.000000	0.000000	0.000000	0.000000	0.000000	0.000000	0.000000	0.000000	0.000000	0.000000	0.000000	0.000000	0.000000	0.000000	5.329851	425.010883	-5.380305	0.184861	0.000000	-1.087231	0.000000	3.784249	0.000000	-0.585395	458.443682	10.697040	0.204174	0.000000	-1.392067	-0.000000	-4.498071	-0.000000
8.462500	0.000000	0.000000	0.000000	0.000000	0.000000	0.000000	0.000000	0.000000	0.000000	0.000000	0.000000	0.000000	0.000000	0.000000	0.000000	0.000000	0.000000	0.000000	0.000000	0.000000	0.000000	0.000000	0.000000	0.000000	0.000000	0.000000	0.000000	5.323565	424.920571	-5.388028	0.184869	0.000000	-1.087235	-0.000000	3.783756	0.000000	-0.559364	458.383397	10.706538	0.204167	0.000000	-1.392068	-0.000000	-4.497033	-0.000000
8.463000	0.000000	0.000000	0.000000	0.000000	0.000000	0.000000	0.000000	0.000000	0.000000	0.000000	0.000000	0.000000	0.000000	0.000000	0.000000	0.000000	0.000000	0.000000	0.000000	0.000000	0.000000	0.000000	0.000000	0.000000	0.000000	0.000000	0.000000	5.317674	424.827475	-5.395704	0.184876	0.000000	-1.087239	-0.000000	3.783290	0.000000	-0.534350	458.321969	10.715914	0.204161	0.000000	-1.392069	-0.000000	-4.496036	-0.000000
8.463500	0.000000	0.000000	0.000000	0.000000	0.000000	0.000000	0.000000	0.000000	0.000000	0.000000	0.000000	0.000000	0.000000	0.000000	0.000000	0.000000	0.000000	0.000000	0.000000	0.000000	0.000000	0.000000	0.000000	0.000000	0.000000	0.000000	0.000000	5.312202	424.731718	-5.403332	0.184883	0.000000	-1.087243	-0.000000	3.782846	0.000000	-0.510342	458.259514	10.725161	0.204154	0.000000	-1.392069	-0.000000	-4.495080	-0.000000
